<!DOCTYPE svg PUBLIC "-//W3C//DTD SVG 1.1//EN" "http://www.w3.org/Graphics/SVG/1.1/DTD/svg11.dtd">
<!-- Uploaded to: SVG Repo, www.svgrepo.com, Transformed by: SVG Repo Mixer Tools -->
<svg fill="#23A0AB" version="1.1" id="Capa_1" xmlns="http://www.w3.org/2000/svg" xmlns:xlink="http://www.w3.org/1999/xlink" viewBox="0 0 60 60" xml:space="preserve" width="800px" height="800px">
<g id="SVGRepo_bgCarrier" stroke-width="0"/>
<g id="SVGRepo_tracerCarrier" stroke-linecap="round" stroke-linejoin="round"/>
<g id="SVGRepo_iconCarrier"> <g> <g> <path d="M17,43H7c-3.9,0-7,3.1-7,7v10h2V50c0-2.8,2.2-5,5-5h1.3l2.8,7.4c0.1,0.3,0.5,0.6,0.9,0.6s0.8-0.3,1.1-0.6l2.8-7.4H17 c2.8,0,5,2.2,5,5v10h2V50C24,46.1,20.9,43,17,43z M12.1,49.2L10.5,45h3.2L12.1,49.2z"/> <rect x="11" y="54" width="2" height="2"/> <rect x="11" y="58" width="2" height="2"/> <path d="M6,34v3c0,2.8,2.2,5,5,5h2c2.8,0,5-2.2,5-5v-3c0-2.8-2.2-5-5-5h-2C8.2,29,6,31.2,6,34z M8,34c0-1.7,1.3-3,3-3h2 c1.7,0,3,1.3,3,3v3c0,1.7-1.3,3-3,3h-2c-1.7,0-3-1.3-3-3V34z"/> <rect x="5" y="53" width="2" height="7"/> <rect x="17" y="53" width="2" height="7"/> <path d="M35,43H25v2h1.3l2.8,7.4c0.1,0.3,0.5,0.6,0.9,0.6s0.8-0.3,1.1-0.6l2.8-7.4H35c2.8,0,5,2.2,5,5v10h2V50 C42,46.1,38.9,43,35,43z M30.1,49.2L28.5,45h3.2L30.1,49.2z"/> <rect x="29" y="54" width="2" height="2"/> <rect x="29" y="58" width="2" height="2"/> <path d="M29,42h2c2.8,0,5-2.2,5-5v-3c0-2.8-2.2-5-5-5h-2c-2.8,0-5,2.2-5,5v3C24,39.8,26.2,42,29,42z M26,34c0-1.7,1.3-3,3-3h2 c1.7,0,3,1.3,3,3v3c0,1.7-1.3,3-3,3h-2c-1.7,0-3-1.3-3-3V34z"/> <rect x="35" y="53" width="2" height="7"/> <path d="M53,43H43v2h1.3l2.8,7.4c0.1,0.3,0.5,0.6,0.9,0.6s0.8-0.3,1.1-0.6l2.8-7.4H53c2.8,0,5,2.2,5,5v10h2V50 C60,46.1,56.9,43,53,43z M48.1,49.2L46.5,45h3.2L48.1,49.2z"/> <rect x="47" y="54" width="2" height="2"/> <rect x="47" y="58" width="2" height="2"/> <path d="M47,42h2c2.8,0,5-2.2,5-5v-3c0-2.8-2.2-5-5-5h-2c-2.8,0-5,2.2-5,5v3C42,39.8,44.2,42,47,42z M44,34c0-1.7,1.3-3,3-3h2 c1.7,0,3,1.3,3,3v3c0,1.7-1.3,3-3,3h-2c-1.7,0-3-1.3-3-3V34z"/> <rect x="53" y="53" width="2" height="7"/> <path d="M58,0v5H2V0H0v6c0,0.6,0.4,1,1,1h24v5h-7c-0.6,0-1,0.4-1,1v11c0,0.6,0.4,1,1,1h5c0.6,0,1-0.4,1-1v-4h4v4c0,0.6,0.4,1,1,1 h5c0.6,0,1-0.4,1-1V13c0-0.6-0.4-1-1-1h-7V7h32c0.6,0,1-0.4,1-1V0H58z M33,23h-3v-3h1v-2h-2h-6h-2v2h1v3h-3v-9h14V23z"/> <rect x="6" width="3" height="2"/> <rect x="11" width="3" height="2"/> <rect x="16" width="3" height="2"/> <rect x="21" width="3" height="2"/> <rect x="26" width="3" height="2"/> <rect x="31" width="3" height="2"/> <rect x="36" width="3" height="2"/> <rect x="41" width="3" height="2"/> <rect x="46" width="3" height="2"/> <rect x="51" width="3" height="2"/> <path d="M43.3,15.3l-3,3c-0.4,0.4-0.4,1,0,1.4l3,3l1.4-1.4L43.4,20H50v-2h-6.6l1.3-1.3L43.3,15.3z"/> <path d="M6.3,21.3l1.4,1.4l3-3c0.4-0.4,0.4-1,0-1.4l-3-3l-1.4,1.4L7.6,18H0v2h7.6L6.3,21.3z"/> </g> </g> </g>
</svg>