<svg version="1.1" id="Layer_1" xmlns="http://www.w3.org/2000/svg" xmlns:xlink="http://www.w3.org/1999/xlink" x="0px" y="0px"
	 width="100%" viewBox="0 0 210 60" enable-background="new 0 0 210 60" xml:space="preserve">
<path fill="#FDFDFE" opacity="1.000000" stroke="none" 
	d="
M143.000000,61.000000 
	C95.333344,61.000000 48.166691,61.000000 1.000025,61.000000 
	C1.000017,41.000015 1.000017,21.000032 1.000008,1.000036 
	C70.999969,1.000024 140.999939,1.000024 210.999939,1.000012 
	C210.999954,20.999964 210.999954,40.999928 210.999969,60.999947 
	C188.500000,61.000000 166.000000,61.000000 143.000000,61.000000 
M149.882156,57.022121 
	C150.585907,56.669411 151.289658,56.316704 152.261856,55.460888 
	C152.565384,54.981483 152.868912,54.502075 153.654205,54.007164 
	C153.654205,54.007164 154.135666,53.984058 154.261734,54.724861 
	C154.323441,55.721661 154.385147,56.718460 154.386795,58.296421 
	C154.910614,58.181229 155.434418,58.066032 156.048126,57.073311 
	C156.198318,54.101677 156.348511,51.130039 156.498688,48.158405 
	C156.261398,48.021896 156.024109,47.885387 155.786819,47.748878 
	C155.239319,48.838932 154.691833,49.928986 153.669098,50.992737 
	C153.669098,50.992737 153.194550,50.976006 153.084961,50.179428 
	C151.716461,49.470135 150.347946,48.760841 148.511810,47.943695 
	C148.511810,47.943695 148.045151,48.056332 147.563324,48.029205 
	C147.563324,48.029205 147.081787,48.061440 146.581970,47.865139 
	C146.187012,47.861141 145.792068,47.857143 145.397110,47.853153 
	C145.894211,48.243626 146.391296,48.634098 146.934845,49.848335 
	C146.908920,51.220745 146.882996,52.593159 146.125488,54.083035 
	C144.324387,54.557056 142.523300,55.031078 140.722198,55.505096 
	C140.695679,55.827271 140.669159,56.149448 140.642639,56.471622 
	C142.739624,56.653687 144.836594,56.835751 147.051788,57.628536 
	C147.702454,57.741196 148.353104,57.853851 149.089890,57.495102 
	C149.089890,57.495102 149.248672,57.042957 149.882156,57.022121 
M199.558472,31.713474 
	C198.400055,31.805628 197.241653,31.897783 196.083237,31.989937 
	C196.289917,34.313358 196.496597,36.636776 196.703262,38.960197 
	C197.137680,38.889713 197.572098,38.819233 198.006500,38.748753 
	C197.730881,37.175148 197.455261,35.601543 197.755600,33.921928 
	C198.180618,33.340099 198.605621,32.758274 199.558472,31.713474 
M152.022980,33.977936 
	C152.022980,33.977936 151.974289,33.962364 152.351410,34.629478 
	C153.483643,34.411320 154.615860,34.193165 155.748093,33.975010 
	C155.539978,33.075890 155.541382,31.555664 155.082199,31.400776 
	C153.961090,31.022596 152.626816,31.276310 151.378342,31.275639 
	C151.597763,32.192833 151.817169,33.110023 152.022980,33.977936 
M167.969757,27.943762 
	C167.969757,31.076160 167.969757,34.208557 167.969757,36.462780 
	C169.242554,35.421474 170.602097,34.309196 172.425323,33.663761 
	C172.712585,31.282793 172.999847,28.901825 173.287109,26.520859 
	C171.556000,26.695454 169.824905,26.870050 167.969757,27.943762 
M133.954117,51.483288 
	C134.056519,52.961090 134.158936,54.438889 134.261337,55.916691 
	C135.677994,55.743343 137.094666,55.569992 138.511322,55.396645 
	C138.169281,53.036884 137.827240,50.677120 137.495819,48.390652 
	C137.831284,47.015568 138.234497,45.362675 138.637726,43.709782 
	C137.075104,43.543003 135.512497,43.376221 133.949860,43.209442 
	C133.975739,44.980049 133.875381,46.766003 134.087830,48.513939 
	C134.176392,49.242634 134.930923,49.890388 135.017746,50.953144 
	C134.889771,51.072773 134.761810,51.192402 133.954117,51.483288 
M57.423241,27.896692 
	C57.395184,36.349819 57.372864,44.802971 57.336395,53.256062 
	C57.320557,56.926800 59.332153,60.539234 62.604530,59.471386 
	C67.438377,57.893997 71.600357,59.933334 76.030602,59.746834 
	C81.314766,59.524384 86.111877,57.883247 89.915337,52.859230 
	C94.802231,46.576302 95.704536,39.697136 91.634415,32.902172 
	C86.385880,24.139860 78.124123,22.404490 68.167244,24.939976 
	C68.167244,19.787672 68.058884,15.005029 68.202599,10.229972 
	C68.311455,6.612994 66.830368,4.318324 63.206272,4.178655 
	C59.375973,4.031038 57.367294,6.386653 57.355186,10.103209 
	C57.336842,15.733204 57.575905,21.364038 57.423241,27.896692 
M43.951725,46.481728 
	C43.969280,48.978458 43.909863,51.478691 44.023167,53.971069 
	C44.177376,57.363274 45.641151,59.944099 49.363644,59.875847 
	C52.977497,59.809586 54.694130,57.258881 54.791782,53.914539 
	C54.961720,48.094646 55.144852,42.245026 54.754917,36.446030 
	C54.185352,27.975616 49.313244,21.900955 42.166218,20.390289 
	C39.656597,19.859831 36.987366,20.084494 33.969185,19.944832 
	C33.969185,16.685745 33.938023,13.551791 33.977074,10.418712 
	C34.025867,6.503870 32.492249,3.812150 28.262512,3.897290 
	C24.248405,3.978090 22.971830,6.748717 22.972076,10.350757 
	C22.973047,24.500614 22.987934,38.650494 22.967163,52.800320 
	C22.961477,56.673599 24.376320,59.502895 28.630245,59.366047 
	C32.835464,59.230766 34.092957,56.377533 34.004307,52.489037 
	C33.882938,47.165428 33.578491,41.784218 34.227993,36.536045 
	C34.478188,34.514397 37.129913,32.789951 38.687443,30.930092 
	C40.398754,32.629848 42.998318,34.062363 43.609310,36.093166 
	C44.484936,39.003540 43.908886,42.350674 43.951725,46.481728 
M115.802643,25.346056 
	C108.178604,22.456316 101.741348,23.997694 98.075790,29.590683 
	C94.916542,34.411137 95.877045,38.797169 101.551735,44.713776 
	C97.117599,44.929272 95.012550,47.084816 96.099388,51.417320 
	C97.424568,56.699905 104.901321,60.396366 111.661613,59.272518 
	C119.144966,58.028465 124.195839,53.324833 122.811157,47.305126 
	C121.917267,43.419109 118.431488,40.129295 116.560989,37.266678 
	C117.611237,36.622814 121.372353,35.449417 121.490601,33.982391 
	C121.673607,31.711868 119.417755,29.213066 118.081558,26.876551 
	C117.788170,26.363508 117.014328,26.125217 115.802643,25.346056 
M15.078822,32.838089 
	C15.260089,30.610874 15.994119,28.219769 15.401779,26.221920 
	C15.080037,25.136745 12.341537,23.931204 10.983587,24.207497 
	C9.379681,24.533833 7.480951,26.150143 6.849326,27.678167 
	C6.312032,28.977985 6.898674,31.926826 7.860364,32.410046 
	C9.739807,33.354412 12.228316,33.086639 15.078822,32.838089 
M157.300842,32.430607 
	C157.196686,33.890018 156.818848,35.402756 157.089005,36.789230 
	C157.256363,37.648106 158.336548,38.833138 159.135010,38.943230 
	C160.247055,39.096561 162.474960,38.449455 162.504044,38.026569 
	C162.768860,34.175434 162.659485,30.298563 162.659485,26.429214 
	C160.887146,28.630545 163.970612,33.387329 157.300842,32.430607 
M161.125153,49.787823 
	C161.131409,51.260082 160.853973,52.815502 161.251938,54.172924 
	C161.484924,54.967636 162.744980,55.847931 163.634094,55.958687 
	C164.590973,56.077881 166.458054,55.458866 166.530487,54.959339 
	C166.826401,52.918110 166.588226,50.799450 166.546768,48.709309 
	C164.813156,48.784023 163.079544,48.858738 161.125153,49.787823 
M177.647705,38.379635 
	C178.293564,34.648693 178.939407,30.917749 179.585251,27.186808 
	C178.854050,27.076805 178.122833,26.966803 177.391632,26.856800 
	C177.316391,30.496601 177.241165,34.136402 177.647705,38.379635 
M137.541748,31.761675 
	C137.944763,30.447161 138.347778,29.132645 138.750793,27.818130 
	C138.254059,27.728350 137.757324,27.638567 137.260605,27.548786 
	C137.136017,29.001514 137.011444,30.454243 137.541748,31.761675 
z"/>
<path fill="#57CF49" opacity="1.000000" stroke="none" 
	d="
M43.952179,45.996529 
	C43.908886,42.350674 44.484936,39.003540 43.609310,36.093166 
	C42.998318,34.062363 40.398754,32.629848 38.687443,30.930092 
	C37.129913,32.789951 34.478188,34.514397 34.227993,36.536045 
	C33.578491,41.784218 33.882938,47.165428 34.004307,52.489037 
	C34.092957,56.377533 32.835464,59.230766 28.630245,59.366047 
	C24.376320,59.502895 22.961477,56.673599 22.967163,52.800320 
	C22.987934,38.650494 22.973047,24.500614 22.972076,10.350757 
	C22.971830,6.748717 24.248405,3.978090 28.262512,3.897290 
	C32.492249,3.812150 34.025867,6.503870 33.977074,10.418712 
	C33.938023,13.551791 33.969185,16.685745 33.969185,19.944832 
	C36.987366,20.084494 39.656597,19.859831 42.166218,20.390289 
	C49.313244,21.900955 54.185352,27.975616 54.754917,36.446030 
	C55.144852,42.245026 54.961720,48.094646 54.791782,53.914539 
	C54.694130,57.258881 52.977497,59.809586 49.363644,59.875847 
	C45.641151,59.944099 44.177376,57.363274 44.023167,53.971069 
	C43.909863,51.478691 43.969280,48.978458 43.952179,45.996529 
z"/>
<path fill="#449ED7" opacity="1.000000" stroke="none" 
	d="
M116.132195,25.553228 
	C117.014328,26.125217 117.788170,26.363508 118.081558,26.876551 
	C119.417755,29.213066 121.673607,31.711868 121.490601,33.982391 
	C121.372353,35.449417 117.611237,36.622814 116.560989,37.266678 
	C118.431488,40.129295 121.917267,43.419109 122.811157,47.305126 
	C124.195839,53.324833 119.144966,58.028465 111.661613,59.272518 
	C104.901321,60.396366 97.424568,56.699905 96.099388,51.417320 
	C95.012550,47.084816 97.117599,44.929272 101.551735,44.713776 
	C95.877045,38.797169 94.916542,34.411137 98.075790,29.590683 
	C101.741348,23.997694 108.178604,22.456316 116.132195,25.553228 
z"/>
<path fill="#459ED6" opacity="1.000000" stroke="none" 
	d="
M57.705605,26.994518 
	C57.575905,21.364038 57.336842,15.733204 57.355186,10.103209 
	C57.367294,6.386653 59.375973,4.031038 63.206272,4.178655 
	C66.830368,4.318324 68.311455,6.612994 68.202599,10.229972 
	C68.058884,15.005029 68.167244,19.787672 68.167244,24.939976 
	C78.124123,22.404490 86.385880,24.139860 91.634415,32.902172 
	C95.704536,39.697136 94.802231,46.576302 89.342331,52.862083 
	C86.469048,50.884251 84.168785,48.903568 81.972107,46.534576 
	C83.962227,41.722466 83.734444,37.564117 79.463173,34.794720 
	C75.705963,32.358631 72.229553,33.599663 69.272758,36.703331 
	C65.276947,33.275879 61.491272,30.135199 57.705605,26.994518 
z"/>
<path fill="#5BD04E" opacity="1.000000" stroke="none" 
	d="
M57.564423,27.445606 
	C61.491272,30.135199 65.276947,33.275879 69.130890,37.076538 
	C67.471344,42.107361 68.101639,46.010811 72.040909,48.777691 
	C75.762421,51.391632 78.944206,49.435890 81.868515,46.922886 
	C84.168785,48.903568 86.469048,50.884251 89.070343,53.073841 
	C86.111877,57.883247 81.314766,59.524384 76.030602,59.746834 
	C71.600357,59.933334 67.438377,57.893997 62.604530,59.471386 
	C59.332153,60.539234 57.320557,56.926800 57.336395,53.256062 
	C57.372864,44.802971 57.395184,36.349819 57.564423,27.445606 
z"/>
<path fill="#5BD04E" opacity="1.000000" stroke="none" 
	d="
M14.771746,33.079391 
	C12.228316,33.086639 9.739807,33.354412 7.860364,32.410046 
	C6.898674,31.926826 6.312032,28.977985 6.849326,27.678167 
	C7.480951,26.150143 9.379681,24.533833 10.983587,24.207497 
	C12.341537,23.931204 15.080037,25.136745 15.401779,26.221920 
	C15.994119,28.219769 15.260089,30.610874 14.771746,33.079391 
z"/>
<path fill="#6FAAE6" opacity="1.000000" stroke="none" 
	d="
M135.382645,50.574951 
	C134.930923,49.890388 134.176392,49.242634 134.087830,48.513939 
	C133.875381,46.766003 133.975739,44.980049 133.949860,43.209442 
	C135.512497,43.376221 137.075104,43.543003 138.637726,43.709782 
	C138.234497,45.362675 137.831284,47.015568 137.495819,48.390652 
	C137.827240,50.677120 138.169281,53.036884 138.511322,55.396645 
	C137.094666,55.569992 135.677994,55.743343 134.261337,55.916691 
	C134.158936,54.438889 134.056519,52.961090 134.382462,51.738869 
	C135.163696,52.621662 135.516602,53.248871 135.869492,53.876076 
	C136.202530,53.633690 136.853241,53.240894 136.820480,53.171715 
	C136.397903,52.279270 135.877975,51.432938 135.382645,50.574951 
z"/>
<path fill="#87B5E3" opacity="1.000000" stroke="none" 
	d="
M157.650269,32.265301 
	C163.970612,33.387329 160.887146,28.630545 162.659485,26.429214 
	C162.659485,30.298563 162.768860,34.175434 162.504044,38.026569 
	C162.474960,38.449455 160.247055,39.096561 159.135010,38.943230 
	C158.336548,38.833138 157.256363,37.648106 157.089005,36.789230 
	C156.818848,35.402756 157.196686,33.890018 157.650269,32.265301 
z"/>
<path fill="#6EA7E4" opacity="1.000000" stroke="none" 
	d="
M161.235535,49.360638 
	C163.079544,48.858738 164.813156,48.784023 166.546753,48.709309 
	C166.588226,50.799450 166.826401,52.918110 166.530487,54.959339 
	C166.458054,55.458866 164.590973,56.077881 163.634094,55.958687 
	C162.744980,55.847931 161.484924,54.967636 161.251938,54.172924 
	C160.853973,52.815502 161.131409,51.260082 161.235535,49.360638 
z"/>
<path fill="#E5E8EC" opacity="1.000000" stroke="none" 
	d="
M177.406830,38.077919 
	C177.241165,34.136402 177.316391,30.496601 177.391632,26.856800 
	C178.122833,26.966803 178.854050,27.076805 179.585251,27.186808 
	C178.939407,30.917749 178.293564,34.648693 177.406830,38.077919 
z"/>
<path fill="#4798E8" opacity="1.000000" stroke="none" 
	d="
M154.446854,57.715260 
	C154.385147,56.718460 154.323441,55.721661 154.277252,53.988060 
	C154.243301,52.507183 154.193817,51.763107 154.144333,51.019035 
	C154.691833,49.928986 155.239319,48.838932 155.786819,47.748878 
	C156.024109,47.885387 156.261398,48.021896 156.498688,48.158405 
	C156.348511,51.130039 156.198318,54.101677 155.745361,57.525642 
	C155.110687,57.890400 154.778763,57.802830 154.446854,57.715260 
z"/>
<path fill="#6BA8E7" opacity="1.000000" stroke="none" 
	d="
M148.979446,48.051544 
	C150.347946,48.760841 151.716461,49.470135 153.075516,50.955631 
	C153.101532,52.495445 153.136993,53.259060 153.172455,54.022671 
	C152.868912,54.502075 152.565384,54.981483 151.767578,55.725998 
	C150.556290,56.055580 149.839264,56.120056 149.132782,55.824890 
	C149.162918,55.226192 149.182510,54.987133 149.468231,54.777763 
	C150.111389,54.504257 150.488419,54.201065 150.953857,53.518692 
	C151.012314,52.103909 150.982361,51.068310 150.861176,49.752747 
	C150.214142,49.363358 149.658356,49.253929 149.070374,48.871422 
	C149.018585,48.416077 148.999023,48.233810 148.979446,48.051544 
z"/>
<path fill="#6EAAE5" opacity="1.000000" stroke="none" 
	d="
M168.093796,27.044643 
	C169.824905,26.870050 171.556000,26.695454 173.287109,26.520859 
	C172.999847,28.901825 172.712585,31.282793 172.213928,33.070770 
	C172.003723,31.997869 172.004929,31.517962 172.007812,30.675133 
	C171.217636,29.269064 170.425781,28.225912 169.249115,27.145943 
	C168.607452,27.087629 168.350616,27.066135 168.093796,27.044643 
z"/>
<path fill="#3593EC" opacity="1.000000" stroke="none" 
	d="
M172.006149,31.038052 
	C172.004929,31.517962 172.003723,31.997869 171.982086,32.837349 
	C170.602097,34.309196 169.242554,35.421474 167.969757,36.462780 
	C167.969757,34.208557 167.969757,31.076160 168.031769,27.494202 
	C168.350616,27.066135 168.607452,27.087629 169.120667,27.513645 
	C169.237442,29.814272 168.786148,31.973055 172.006149,31.038052 
z"/>
<path fill="#64A5E5" opacity="1.000000" stroke="none" 
	d="
M152.036591,34.027214 
	C151.817169,33.110023 151.597763,32.192833 151.378357,31.275639 
	C152.626816,31.276310 153.961090,31.022596 155.082199,31.400776 
	C155.541382,31.555664 155.539978,33.075890 155.748093,33.975006 
	C154.615860,34.193165 153.483643,34.411320 152.481171,34.297741 
	C152.977173,33.592319 153.343384,33.218639 153.709610,32.844963 
	C153.490372,32.673512 153.271118,32.502064 153.051880,32.330612 
	C152.713455,32.896145 152.375015,33.461681 152.036591,34.027214 
z"/>
<path fill="#F1F1F4" opacity="1.000000" stroke="none" 
	d="
M146.933563,57.017818 
	C144.836594,56.835751 142.739624,56.653687 140.642639,56.471622 
	C140.669159,56.149448 140.695679,55.827271 140.722198,55.505096 
	C142.523300,55.031078 144.324387,54.557056 146.542877,54.404057 
	C146.951355,55.489326 146.942459,56.253571 146.933563,57.017818 
z"/>
<path fill="#569FE7" opacity="1.000000" stroke="none" 
	d="
M197.179642,34.027943 
	C197.455261,35.601543 197.730881,37.175148 198.006500,38.748753 
	C197.572098,38.819233 197.137680,38.889713 196.703262,38.960197 
	C196.496597,36.636776 196.289917,34.313358 196.083237,31.989937 
	C197.241653,31.897783 198.400055,31.805628 198.963074,31.904125 
	C197.971680,32.739166 197.575653,33.383553 197.179642,34.027943 
z"/>
<path fill="#B3C6DE" opacity="1.000000" stroke="none" 
	d="
M146.992676,57.323177 
	C146.942459,56.253571 146.951355,55.489326 146.908661,54.345322 
	C146.882996,52.593159 146.908920,51.220745 146.970184,49.197533 
	C147.005508,48.546730 147.081787,48.061440 147.081787,48.061440 
	C147.081787,48.061440 147.563324,48.029205 147.791306,48.484982 
	C148.347443,51.949341 148.675598,54.957928 149.003769,57.966507 
	C148.353104,57.853851 147.702454,57.741196 146.992676,57.323177 
z"/>
<path fill="#A2C6E6" opacity="1.000000" stroke="none" 
	d="
M137.214294,31.834324 
	C137.011444,30.454243 137.136017,29.001514 137.260605,27.548786 
	C137.757324,27.638567 138.254059,27.728350 138.750793,27.818130 
	C138.347778,29.132645 137.944763,30.447161 137.214294,31.834324 
z"/>
<path fill="#4194ED" opacity="1.000000" stroke="none" 
	d="
M149.046829,57.730804 
	C148.675598,54.957928 148.347443,51.949341 148.032227,48.498543 
	C148.045151,48.056332 148.511810,47.943695 148.745636,47.997620 
	C148.999023,48.233810 149.018585,48.416077 149.060364,49.110191 
	C149.082581,49.622036 149.226257,50.078499 149.162567,50.392910 
	C149.120636,51.133259 149.142380,51.559200 149.082123,52.326389 
	C149.067429,53.361118 149.134781,54.054600 149.202118,54.748077 
	C149.182510,54.987133 149.162918,55.226192 149.124573,56.045273 
	C149.105850,56.625294 149.248672,57.042957 149.248672,57.042957 
	C149.248672,57.042957 149.089890,57.495102 149.046829,57.730804 
z"/>
<path fill="#EAEEF3" opacity="1.000000" stroke="none" 
	d="
M197.467621,33.974937 
	C197.575653,33.383553 197.971680,32.739166 198.699158,32.135612 
	C198.605621,32.758274 198.180618,33.340099 197.467621,33.974937 
z"/>
<path fill="#F1F1F4" opacity="1.000000" stroke="none" 
	d="
M146.831879,47.963287 
	C147.081787,48.061440 147.005508,48.546730 146.946960,48.785652 
	C146.391296,48.634098 145.894211,48.243626 145.397110,47.853149 
	C145.792068,47.857143 146.187012,47.861141 146.831879,47.963287 
z"/>
<path fill="#EFF0F2" opacity="1.000000" stroke="none" 
	d="
M153.413330,54.014915 
	C153.136993,53.259060 153.101532,52.495445 153.130310,51.353920 
	C153.194550,50.976006 153.669098,50.992737 153.906708,51.005886 
	C154.193817,51.763107 154.243301,52.507183 154.214233,53.617657 
	C154.135666,53.984058 153.654205,54.007164 153.413330,54.014915 
z"/>
<path fill="#EFF0F2" opacity="1.000000" stroke="none" 
	d="
M149.565414,57.032539 
	C149.248672,57.042957 149.105850,56.625294 149.114044,56.404911 
	C149.839264,56.120056 150.556290,56.055580 151.633362,55.977547 
	C151.289658,56.316704 150.585907,56.669411 149.565414,57.032539 
z"/>
<path fill="#9EC3E8" opacity="1.000000" stroke="none" 
	d="
M154.416824,58.005840 
	C154.778763,57.802830 155.110687,57.890400 155.700409,57.964401 
	C155.434418,58.066032 154.910614,58.181229 154.416824,58.005840 
z"/>
<path fill="#F8FCFA" opacity="1.000000" stroke="none" 
	d="
M81.972107,46.534576 
	C78.944206,49.435890 75.762421,51.391632 72.040909,48.777691 
	C68.101639,46.010811 67.471344,42.107361 69.341034,37.363312 
	C72.229553,33.599663 75.705963,32.358631 79.463173,34.794720 
	C83.734444,37.564117 83.962227,41.722466 81.972107,46.534576 
z"/>
<path fill="#FDFDFE" opacity="1.000000" stroke="none" 
	d="
M135.200195,50.764046 
	C135.877975,51.432938 136.397903,52.279270 136.820480,53.171715 
	C136.853241,53.240894 136.202530,53.633690 135.869492,53.876076 
	C135.516602,53.248871 135.163696,52.621662 134.722321,51.653244 
	C134.761810,51.192402 134.889771,51.072773 135.200195,50.764046 
z"/>
<path fill="#FBFBFB" opacity="1.000000" stroke="none" 
	d="
M149.164139,51.985138 
	C149.142380,51.559200 149.120636,51.133259 149.450134,50.378868 
	C150.185043,50.044514 150.568726,50.038612 150.952393,50.032707 
	C150.982361,51.068310 151.012314,52.103909 150.729248,53.387287 
	C149.998856,53.085087 149.581497,52.535114 149.164139,51.985138 
z"/>
<path fill="#D8DEE9" opacity="1.000000" stroke="none" 
	d="
M149.082123,52.326389 
	C149.581497,52.535114 149.998856,53.085087 150.640839,53.766464 
	C150.488419,54.201065 150.111389,54.504257 149.468231,54.777763 
	C149.134781,54.054600 149.067429,53.361118 149.082123,52.326389 
z"/>
<path fill="#D8DEE9" opacity="1.000000" stroke="none" 
	d="
M150.861160,49.752747 
	C150.568726,50.038612 150.185043,50.044514 149.513824,50.064461 
	C149.226257,50.078499 149.082581,49.622036 149.092575,49.383270 
	C149.658356,49.253929 150.214142,49.363358 150.861160,49.752747 
z"/>
<path fill="#E0E9F2" opacity="1.000000" stroke="none" 
	d="
M172.007812,30.675133 
	C168.786148,31.973055 169.237442,29.814272 169.505493,27.550461 
	C170.425781,28.225912 171.217636,29.269064 172.007812,30.675133 
z"/>
<path fill="#E8EBEE" opacity="1.000000" stroke="none" 
	d="
M152.029785,34.002575 
	C152.375015,33.461681 152.713455,32.896145 153.051880,32.330612 
	C153.271118,32.502064 153.490372,32.673512 153.709610,32.844963 
	C153.343384,33.218639 152.977173,33.592319 152.292618,33.964184 
	C151.974289,33.962364 152.022980,33.977936 152.029785,34.002575 
z"/>
</svg>